<svg xmlns="http://www.w3.org/2000/svg" viewBox="0 0 64 64" role="img" aria-labelledby="title desc">
  <title id="title">BlinkGo</title>
  <desc id="desc">BlinkGo speed B emblem</desc>
  <defs>
    <linearGradient id="surface" x1="8" y1="4" x2="56" y2="62" gradientUnits="userSpaceOnUse">
      <stop stop-color="#232428"/>
      <stop offset="1" stop-color="#08090B"/>
    </linearGradient>
    <linearGradient id="gold" x1="19" y1="37" x2="50" y2="54" gradientUnits="userSpaceOnUse">
      <stop stop-color="#FFD54A"/>
      <stop offset="1" stop-color="#FFC107"/>
    </linearGradient>
    <linearGradient id="red" x1="20" y1="13" x2="51" y2="35" gradientUnits="userSpaceOnUse">
      <stop stop-color="#FF2B24"/>
      <stop offset="1" stop-color="#E10600"/>
    </linearGradient>
  </defs>
  <rect x="1" y="1" width="62" height="62" rx="16" fill="url(#surface)" stroke="#35363B" stroke-width="2"/>
  <path d="M5 20h17l-5 5H3l2-5Zm-2 9h16l-5 5H1l2-5Z" fill="#E10600"/>
  <path d="M5 38h15l-5 5H3l2-5Zm-2 9h15l-5 5H1l2-5Z" fill="#FFC107"/>
  <path d="M20 12h19c8 0 13 4 13 10 0 4-2 7-6 9 3 1 5 3 6 6H39c0-2-2-3-5-3H24l4-7h10c2 0 3-1 3-3s-1-3-4-3H15l5-9Z" fill="url(#red)"/>
  <path d="M20 33h20c8 0 13 4 13 10 0 7-6 11-15 11H10l10-21Zm5 13h13c3 0 4-1 4-3s-2-3-5-3h-9l-3 6Z" fill="url(#gold)"/>
</svg>
